<?xml version='1.0' encoding='utf-8'?>
<svg xmlns="http://www.w3.org/2000/svg" width="166.89783mm" height="234.26088mm" viewBox="0 0 166.89783 234.26088" version="1.1" id="svg5" xml:space="preserve"><defs id="defs2" /><g id="layer1"><path style="fill:#000000" d="m 38.69579999999951 234.02490000000034 c 0.1666,-0.1777 2.6669,-0.8485 5.5563,-1.4906 13.6188,-3.0265 16.2977,-3.6406 18.9804,-4.3513 1.5835,-0.4195 2.9428,-0.8263 3.0206,-0.9042 0.2363,-0.2363 -10.0514,-0.1584 -17.1809,0.13 -3.6908,0.1494 -12.3065,0.5715 -19.146,0.9382 -14.6854,0.7872 -27.5501,1.1247 -27.2977,0.7163 0.093,-0.151 1.2728,-0.4704 2.6212,-0.7098 3.9758,-0.7059 26.1657,-4.3498 30.7619,-5.0515 9.5813,-1.4629 23.919,-3.0385 27.6834,-3.0423 h 1.4895 l 1.1358,-1.5044 c 2.0256,-2.6828 3.3002,-5.7771 4.2223,-10.2502 1.0322,-5.0067 1.3179,-10.6013 0.7846,-15.3652 -0.3683,-3.2906 -0.335,-3.2477 -1.6474,-2.122 -5.9393,5.0944 -12.6845,9.0901 -18.7527,11.1086 -2.96,0.9846 -4.1518,1.142 -4.6761,0.6177 -0.626,-0.626 -0.2743,-1.4435 1.7941,-4.1694 1.1548,-1.5219 2.0662,-2.8006 2.0253,-2.8415 -0.041,-0.041 -1.2563,0.516 -2.7009,1.2375 -3.321,1.6587 -8.1932,3.2628 -11.6704,3.8423 -6.6273,1.1044 -11.2699,-0.3011 -6.6142,-2.0024 5.3437,-1.9527 8.4738,-3.544 11.6892,-5.9427 1.7431,-1.3002 3.8717,-3.3 3.5127,-3.3 -0.09,0 -1.6311,0.4232 -3.4253,0.9405 -5.6043,1.6155 -8.6415,2.0434 -14.6394,2.0622 -3.954,0.012 -5.9061,-0.099 -7.7222,-0.4399 -6.9393,-1.3035 -13.0182,-3.9738 -16.5351,-7.2634 -2.1495,-2.0107 -2.5189,-3.299 -1.1888,-4.1468 0.3487,-0.2223 2.0859,-0.4859 4.4117,-0.6694 6.0983,-0.481 10.72,-1.5754 15.5932,-3.6924 1.2464,-0.5415 2.8019,-1.333 3.4568,-1.759 l 1.1906,-0.7745 -3.175,-0.1598 c -3.4105,-0.1716 -5.1505,-0.5306 -5.8207,-1.2008 -0.8516,-0.8516 -0.315,-1.2155 3.6349,-2.4651 8.0964,-2.5614 14.3622,-7.3361 17.7751,-13.5451 0.5209,-0.9477 0.9472,-1.8026 0.9472,-1.8996 0,-0.097 -1.3011,-0.1765 -2.8913,-0.1765 -5.4616,0 -9.6676,-0.9462 -14.3066,-3.2184 -2.2612,-1.1075 -3.1352,-1.7169 -4.6964,-3.2746 -1.5413,-1.5378 -1.9182,-2.072 -1.9182,-2.7186 0,-0.9017 0.5434,-1.5778 1.4075,-1.7513 0.3173,-0.064 1.6854,-0.1821 3.0402,-0.2632 3.3013,-0.1976 7.2844,-1.0372 10.3575,-2.1833 2.645,-0.9864 6.0969,-2.8383 6.0969,-3.271 0,-0.1391 -0.7681,-0.2529 -1.7068,-0.2529 -2.1029,0 -4.2514,-0.4398 -4.7926,-0.9809 -0.7413,-0.7413 -0.3105,-1.1963 1.8691,-1.9745 6.8099,-2.4311 12.079,-6.2529 15.6554,-11.3551 1.0212,-1.4569 2.4686,-3.9747 2.4686,-4.2942 0,-0.056 -1.2799,-0.1703 -2.8443,-0.2544 -6.6098,-0.3554 -12.032,-2.4219 -15.4861,-5.902 -1.068,-1.076 -1.3981,-1.8682 -1.1303,-2.712 0.225,-0.709 0.6002,-0.8189 3.8361,-1.1232 5.5671,-0.5237 10.45,-2.1338 13.8681,-4.5729 0.9516,-0.679 1.7923,-1.3351 1.8682,-1.458 0.076,-0.1228 -0.9599,-0.1697 -2.3019,-0.1041 -2.8284,0.1382 -4.5567,-0.2756 -4.5567,-1.0909 0,-0.3775 0.5124,-0.6973 2.1176,-1.3217 5.6649,-2.2038 10.2238,-5.8319 13.5696,-10.7992 1.1343,-1.6839 2.1747,-3.459 2.171,-3.7037 -7e-4,-0.044 -1.2806,-0.092 -2.8443,-0.1069 -1.6794,-0.016 -3.5469,-0.2064 -4.5628,-0.4644 -2.6313,-0.6682 -5.8306,-2.3473 -7.1035,-3.7282 -1.8941,-2.0549 -1.4902,-2.5862 2.6063,-3.428 5.2558,-1.08 9.2675,-3.0697 13.2284,-6.561 1.5011,-1.3231 4.2334,-4.3935 4.2334,-4.7573 0,-0.1131 -0.5073,-0.1361 -1.1272,-0.051 -1.5304,0.2097 -5.7509,-0.3312 -7.5687,-0.9701 -1.6834,-0.5917 -3.1085,-1.8284 -2.8583,-2.4805 0.1866,-0.4863 0.5244,-0.6345 3.6737,-1.6115 3.2074,-0.995 6.1938,-2.8899 9.0049,-5.7137 1.2733,-1.279 2.3151,-2.4603 2.3151,-2.6251 0,-0.206 -0.2685,-0.2319 -0.8599,-0.083 -0.4729,0.1192 -1.572,0.218 -2.4424,0.2195 -2.2193,0 -2.2039,-0.4974 0.058,-1.9002 5.6392,-3.4971 10.1582,-9.7885 14.0727,-19.5924 1.1007,-2.7568 2.1388,-3.7723 3.856,-3.7723 1.6558,0 2.6412,1.0598 3.9516,4.2502 3.6439,8.8713 8.7885,17.2078 13.9533,22.6103 2.8064,2.9355 5.0543,4.6597 8.76,6.7193 2.9829,1.6578 3.3605,2.2077 2.2949,3.342 -1.6012,1.7044 -7.1215,2.1988 -11.1989,1.0028 -0.8012,-0.235 0.9283,2.1001 3.3864,4.5721 4.2704,4.2945 9.2964,6.8229 14.7034,7.3966 0.9458,0.1004 1.92,0.2858 2.1648,0.412 1.1931,0.6152 0.7024,2.1703 -1.2182,3.8608 -2.7881,2.4542 -6.6626,3.7776 -11.0596,3.7776 h -2.6201 l 0.6843,1.2568 c 1.1098,2.0386 3.1518,4.6039 5.254,6.6009 3.3348,3.1677 6.4798,5.0388 10.5625,6.2841 1.267,0.3864 2.374,0.8165 2.46,0.9557 0.5439,0.8801 -1.3943,2.2568 -4.2029,2.9853 -0.8509,0.2207 -1.6043,0.4585 -1.6742,0.5284 -0.2466,0.2465 1.9217,1.516 3.8827,2.2733 2.4903,0.9617 5.4867,1.5362 9.1718,1.7583 1.7209,0.1038 3.1047,0.3216 3.462,0.5451 1.3245,0.8282 0.4518,2.7688 -2.2457,4.9938 -4.6912,3.8696 -11.6752,5.4624 -17.2274,3.9291 -0.6205,-0.1714 -0.6209,-0.1701 -0.1822,0.6781 0.6308,1.2199 3.7097,4.2331 5.5663,5.4475 3.3959,2.2214 7.8288,3.7378 13.197,4.5143 1.6184,0.2342 3.0512,0.5293 3.1841,0.6558 1.0758,1.0249 -7.0918,1.2396 -11.2094,0.2946 -1.3756,-0.3157 -2.5587,-0.574 -2.6291,-0.574 -0.3898,0 1.6693,1.8168 3.1459,2.7758 2.4998,1.6234 4.9168,2.524 9.3662,3.4898 1.2496,0.2713 1.7478,0.9002 1.2184,1.5381 -0.5813,0.7005 -2.7553,1.6927 -4.694,2.1423 -0.9829,0.2279 -1.8295,0.4568 -1.8812,0.5086 -0.1709,0.1708 2.9703,1.632 4.7219,2.1964 2.8113,0.906 5.9706,1.3849 10.2739,1.5575 3.863,0.1549 4.0754,0.1919 4.4583,0.7763 0.3675,0.561 0.3524,0.7161 -0.1757,1.807 -1.1221,2.3179 -5.5098,5.6237 -9.794,7.379 -3.2304,1.3235 -5.6714,1.8009 -9.9819,1.9521 -2.4848,0.087 -3.9683,0.2391 -3.871,0.3965 0.087,0.1404 0.7083,0.6044 1.3811,1.0311 2.4183,1.5336 6.6504,2.3474 12.2075,2.3474 3.2482,0 4.233,0.3041 4.233,1.3072 0,1.497 -4.3946,3.7208 -8.7732,4.4396 l -2.6933,0.4421 1.2324,1.0845 c 3.7102,3.2648 8.7662,5.3672 15.1908,6.3167 2.2371,0.3306 3.2454,0.7105 3.2454,1.2229 0,0.9287 -3.5196,2.9185 -6.5625,3.7102 l -1.7358,0.4516 0.6576,0.4308 c 0.3616,0.237 1.3466,0.6679 2.1887,0.9577 3.1838,1.0954 5.185,1.3675 11.0083,1.4967 3.1286,0.069 5.936,0.1771 6.2384,0.2393 0.3025,0.062 0.681,0.4005 0.8411,0.7519 0.8352,1.833 -2.9836,5.4274 -8.8716,8.3503 -2.8385,1.4091 -5.2586,2.2367 -8.659,2.9611 -2.5404,0.5412 -3.5999,0.6174 -8.3344,0.5996 -5.174,-0.02 -9.1117,-0.4529 -14.1724,-1.5599 l -0.7765,-0.1699 0.926,0.8205 c 1.6235,1.4383 4.8116,3.4462 7.5913,4.7811 2.9303,1.4072 3.4718,1.9515 2.8394,2.8544 -0.5352,0.7641 -1.8406,1.0797 -5.2713,1.2746 -7.6412,0.4342 -16.7815,-1.4788 -24.0771,-5.0391 -3.3376,-1.6287 -7.8373,-4.5272 -9.8358,-6.3356 -1.3258,-1.1998 -1.3752,-1.22 -1.5617,-0.6371 -0.1059,0.3311 -0.1878,2.626 -0.1819,5.0999 0.021,8.705 1.7364,17.1772 4.5737,22.5846 1.7839,3.4 1.0509,3.0842 8.3286,3.5873 20.5548,1.4209 39.6497,3.9874 52.3875,7.0412 4.3367,1.0397 4.0564,1.3123 -1.0583,1.0291 -9.5048,-0.5262 -24.7641,-0.8345 -33.7344,-0.6817 -13.7702,0.2347 -23.6234,0.8929 -44.1854,2.9515 -17.4802,1.7501 -27.4549,2.4711 -37.174,2.6869 -5.6203,0.1249 -7.0791,0.09 -6.8408,-0.1645 z m 42.4273,-43.9292 c 0.8572,-0.5821 1.6598,-1.0584 1.7837,-1.0584 0.1239,0 0.8745,0.4137 1.6681,0.9193 0.7937,0.5056 1.5751,0.9223 1.7365,0.926 0.1931,0 0.1155,-0.6418 -0.227,-1.8912 l -0.5205,-1.898 1.6822,-1.5301 1.6822,-1.53 -1.356,-0.012 c -2.716,-0.023 -2.9074,-0.1347 -3.7016,-2.159 -0.393,-1.0017 -0.792,-1.8213 -0.8868,-1.8213 -0.095,0 -0.5211,0.827 -0.9475,1.8378 -0.8603,2.0391 -0.9917,2.1217 -3.3827,2.1273 -0.8489,0 -1.5038,0.1095 -1.4552,0.239 0.048,0.1294 0.762,0.7821 1.5857,1.4503 l 1.4975,1.215 -0.3459,1.3939 c -0.5995,2.4165 -0.6789,2.8492 -0.523,2.8492 0.083,0 0.8531,-0.4763 1.7103,-1.0583 z m 48.362,-2.5305 c 4.0159,-1.3481 6.6491,-4.1579 6.6655,-7.1125 l 0.01,-1.044 -0.7537,1.1885 c -0.4145,0.6537 -1.2411,1.5745 -1.8369,2.0464 -3.4264,2.7138 -10.3359,4.3418 -16.1286,3.8003 -1.2006,-0.1122 -2.1828,-0.1201 -2.1828,-0.017 0,0.2758 3.204,1.2926 5.38,1.7073 2.6639,0.5077 6.3499,0.271 8.8507,-0.5685 z m -73.0221,-1.8598 c 7.6622,-1.5826 15.068,-6.175 21.0805,-13.0722 2.1036,-2.4132 5.4172,-6.8086 5.427,-7.1989 0,-0.1031 -1.811,1.6252 -4.0302,3.8406 -6.8329,6.8212 -12.8996,10.5208 -20.4841,12.4914 -9.8945,2.5708 -18.1624,0.2295 -21.2358,-6.0136 -0.6943,-1.4103 -0.8792,-2.1247 -0.908,-3.5083 -0.03,-1.428 -0.093,-1.6595 -0.3559,-1.3003 -0.6694,0.9153 -0.984,3.2439 -0.6788,5.0254 0.3868,2.2585 1.1757,3.8046 2.8812,5.6467 3.7105,4.0077 10.9108,5.6164 18.3041,4.0892 z m 45.1276,-4.4071 c -3.533,-3.6812 -5.708,-7.4919 -7.0335,-12.3229 -0.7552,-2.7525 -0.8121,-8.1752 -0.11,-10.4816 1.226,-4.0276 4.0863,-7.8891 6.7971,-9.176 0.7206,-0.3421 1.3102,-0.713 1.3102,-0.8242 0,-0.2505 0.1291,-0.2569 -1.7268,0.086 -4.1848,0.7736 -7.6868,4.1872 -9.2974,9.0628 -0.6215,1.8814 -0.7151,2.5996 -0.7291,5.5979 -0.013,2.8307 0.091,3.8116 0.5901,5.5412 1.1662,4.0429 3.9113,8.374 7.0839,11.1767 1.8128,1.6014 4.5099,3.5227 4.9452,3.5227 0.1459,0 -0.6774,-0.9823 -1.8297,-2.1828 z m 16.0939,-1.5815 c 1.9861,-0.9092 3.2828,-2.131 4.2645,-4.018 0.7492,-1.44 0.8377,-1.8484 0.8366,-3.8594 0,-1.7869 -0.1287,-2.533 -0.6212,-3.6319 -0.6866,-1.5317 -2.3135,-3.1808 -3.9733,-4.0276 l -1.0847,-0.5533 v -1.5821 c 0,-1.23 -0.088,-1.5822 -0.3968,-1.5822 -0.2762,0 -0.3969,-0.2779 -0.3969,-0.9136 0,-1.2272 -0.4509,-2.1407 -1.2323,-2.4968 -0.9843,-0.4485 -1.386,-0.362 -2.2276,0.4797 -0.5945,0.5944 -0.7734,1.0158 -0.7734,1.8212 0,0.7916 -0.1181,1.0787 -0.4826,1.174 -0.4154,0.1086 -0.4669,0.3437 -0.3697,1.6877 l 0.113,1.5614 -0.9231,0.3338 c -1.459,0.5276 -3.2489,2.2889 -4.1417,4.0755 -0.6779,1.3566 -0.8105,1.9322 -0.8105,3.5171 0,1.0422 0.1895,2.4512 0.4212,3.1312 0.4752,1.3945 2.2934,3.5574 3.7444,4.4542 2.3011,1.4221 5.5115,1.5932 8.0541,0.4291 z m -4.4959,-20.352 c 0.051,-0.6915 0.2527,-1.2049 0.5444,-1.3877 0.7526,-0.4717 1.3762,0.1169 1.4704,1.3877 l 0.081,1.0975 h -1.0888 -1.0887 z m -65.5647,17.6633 c 1.8641,-0.7788 3.0514,-2.88 2.6964,-4.7719 -0.2275,-1.2129 -1.5574,-2.7397 -2.9293,-3.3629 -1.1544,-0.5245 -2.9162,-0.6514 -3.1773,-0.2289 -0.09,0.1455 0.088,0.2646 0.3944,0.2646 1.6904,0 3.2793,1.9236 3.2793,3.97 0,2.1113 -1.5961,3.7029 -3.7134,3.7029 -0.5995,0 -0.8927,0.095 -0.7408,0.2389 0.6277,0.5966 2.9614,0.701 4.1907,0.1873 z m -3.6243,-3.2403 c 0.1767,-0.4607 -0.1677,-1.1937 -0.634,-1.3491 -0.1546,-0.052 -0.4732,0.098 -0.7081,0.3333 -0.3239,0.3239 -0.361,0.5505 -0.1537,0.9379 0.3335,0.6231 1.2679,0.6718 1.4958,0.078 z m 23.4414,-6.2672 c 3.0775,-1.8035 4.446,-5.0189 3.5085,-8.2437 -0.4862,-1.6726 -1.9035,-3.4229 -3.4431,-4.252 -0.8479,-0.4566 -0.9354,-0.6103 -0.9354,-1.6425 0,-0.7682 -0.1291,-1.1883 -0.3969,-1.2911 -0.2182,-0.084 -0.3968,-0.4702 -0.3968,-0.8588 0,-1.7927 -1.825,-2.541 -2.8912,-1.1855 -0.3016,0.3834 -0.5484,1.0382 -0.5484,1.4552 0,0.4169 -0.1191,0.7581 -0.2646,0.7581 -0.1455,0 -0.2646,0.5241 -0.2646,1.1647 0,1.0421 -0.079,1.1924 -0.7525,1.4271 -1.1701,0.4079 -2.6529,1.8579 -3.4127,3.3375 -1.8368,3.5765 -0.051,8.1457 3.7874,9.6927 1.8285,0.737 4.3996,0.5823 6.0103,-0.3617 z m -4.3096,-16.0035 c 0,-1.5028 1.6604,-1.852 1.8027,-0.3792 0.079,0.8223 0.044,0.8578 -0.8599,0.8578 -0.7332,0 -0.9428,-0.1064 -0.9428,-0.4786 z m -15.1474,8.0134 c 1.6105,-1.8534 -0.3525,-4.7532 -2.5902,-3.8263 -1.7599,0.729 -2.1301,2.6582 -0.7709,4.0174 0.6964,0.6964 0.9392,0.7848 1.7859,0.65 0.5846,-0.093 1.2201,-0.4324 1.5752,-0.8411 z m 53.9089,-1.0525 c 0,-0.7048 -0.089,-0.7938 -0.7901,-0.7938 -0.5519,0 -0.8179,0.1443 -0.8823,0.4785 -0.1653,0.8582 0.1697,1.2819 0.9433,1.1929 0.6151,-0.071 0.7291,-0.208 0.7291,-0.8776 z m -18.5976,-8.3319 c 0.9153,-0.5807 1.7934,-1.057 1.9511,-1.0583 0.1578,0 0.9668,0.4737 1.7977,1.0558 0.831,0.5821 1.6082,1.0583 1.7273,1.0583 0.119,0 -0.01,-0.9227 -0.2798,-2.0505 l -0.4962,-2.0505 1.6571,-1.5014 c 1.8738,-1.6976 1.8448,-1.755 -0.9432,-1.8662 l -1.8066,-0.072 -0.7557,-1.9449 c -0.4156,-1.0696 -0.8078,-1.997 -0.8715,-2.0607 -0.064,-0.064 -0.5017,0.8412 -0.9733,2.011 l -0.8573,2.1269 h -2.0713 c -1.1393,0 -2.129,0.093 -2.1995,0.2073 -0.07,0.1141 0.2481,0.501 0.708,0.8599 0.4598,0.3589 1.2277,1.0098 1.7063,1.4463 l 0.8702,0.7938 -0.5354,1.9149 c -0.5752,2.0567 -0.5997,2.1861 -0.4139,2.1861 0.067,0 0.8706,-0.4751 1.786,-1.0558 z m 36.9249,-3.3224 c 4.0083,-1.6748 4.3181,-7.3062 0.5108,-9.2867 -0.5429,-0.2824 -0.6987,-0.5189 -0.5827,-0.8844 0.087,-0.2743 0.053,-0.7146 -0.076,-0.9784 -0.1288,-0.2638 -0.4061,-0.8368 -0.6162,-1.2733 -0.6559,-1.363 -2.1986,-1.1438 -2.4258,0.3447 -0.048,0.3122 -0.1691,0.6501 -0.2698,0.7509 -0.1008,0.1008 -0.1832,0.5235 -0.1832,0.9394 0,0.5535 -0.1692,0.8205 -0.6312,0.9962 -1.1365,0.4321 -2.4787,2.0768 -2.8051,3.4371 -0.9837,4.1008 3.1646,7.5901 7.0792,5.9545 z m -2.4968,-11.6496 c -0.1917,-0.4996 0.5335,-1.3079 0.9451,-1.0535 0.1595,0.099 0.29,0.4698 0.29,0.8251 0,0.4727 -0.144,0.6458 -0.5375,0.6458 -0.2956,0 -0.6095,-0.1878 -0.6976,-0.4174 z m -61.8644,10.0655 c 9.8777,-1.7172 19.751,-7.5202 26.6696,-15.6749 2.2449,-2.646 4.2132,-5.376 4.0173,-5.5719 -0.074,-0.074 -1.3535,1.0725 -2.8444,2.5468 -9.0527,8.9518 -19.3198,14.4104 -31.0211,16.4925 -2.9297,0.5214 -4.3543,0.6134 -9.6099,0.6206 -6.7376,0.01 -6.889,0.086 -2.4287,1.2377 3.9989,1.0321 10.4393,1.1799 15.2172,0.3492 z m -3.9224,-8.8416 c 1.6986,-1.0357 1.6128,-3.7147 -0.1483,-4.6254 -1.0051,-0.5198 -1.7011,-0.5236 -2.6851,-0.015 -0.9605,0.4967 -1.3176,1.1413 -1.3176,2.3785 0,1.2145 0.3501,1.8701 1.2634,2.3657 0.9897,0.537 1.8894,0.5047 2.8876,-0.104 z m 53.2277,-3.0297 c 6.1257,-3.2175 6.3775,-11.8749 0.4361,-14.9954 l -1.22,-0.6408 0.1726,-1.2744 c 0.1553,-1.1469 0.1169,-1.289 -0.3839,-1.4199 -0.4464,-0.1167 -0.5564,-0.3511 -0.5564,-1.185 0,-0.7509 -0.1803,-1.2198 -0.6494,-1.6889 -0.7934,-0.7934 -1.4421,-0.8212 -2.3576,-0.1011 -0.5398,0.4246 -0.6972,0.7808 -0.6972,1.5782 0,0.7739 -0.1374,1.1034 -0.5532,1.3259 -0.4661,0.2494 -0.539,0.496 -0.463,1.5661 l 0.09,1.27 -1.2712,0.6032 c -0.6991,0.3317 -1.7921,1.1825 -2.4287,1.8906 -3.8543,4.2869 -2.0233,11.2905 3.4877,13.3405 1.3897,0.517 5.2031,0.3565 6.394,-0.269 z m -4.462,-19.1891 c 0,-1.5373 1.4785,-2.124 1.9529,-0.7749 0.3746,1.0652 0.056,1.5497 -1.0186,1.5497 -0.8567,0 -0.9343,-0.064 -0.9343,-0.7748 z m -34.1865,15.5812 c 5.2055,-1.2007 8.5149,-6.3851 7.0992,-11.1212 -0.9785,-3.2735 -3.6104,-5.3661 -6.7786,-5.3896 -2.3246,-0.017 -4.0079,0.8001 -5.0579,2.4558 -1.8677,2.945 -0.2263,6.6569 2.9436,6.6569 1.6555,0 2.9907,-1.5011 2.3688,-2.6631 -0.2782,-0.5198 -1.049,-0.7154 -1.049,-0.2662 0,0.4425 -0.8196,1.0773 -1.391,1.0773 -0.8347,0 -1.784,-1.0236 -1.784,-1.9236 0,-1.6177 1.5749,-3.1035 3.2896,-3.1035 0.844,0 2.4571,0.6479 3.1542,1.2668 0.7626,0.6772 1.4815,2.4318 1.4864,3.628 0.01,1.8463 -0.4923,3.0383 -1.8386,4.3846 -3.5918,3.5917 -9.5633,2.2277 -11.7695,-2.6885 -1.2613,-2.8104 -1.202,-7.1278 0.1413,-10.2951 l 0.5049,-1.1906 -0.668,0.7937 c -0.9402,1.1172 -2.1708,3.7624 -2.5304,5.4393 -0.4001,1.8653 -0.1593,4.77 0.5525,6.6645 0.6561,1.7467 2.6778,4.1163 4.3458,5.0938 2.1156,1.2398 4.7746,1.6896 6.9807,1.1807 z m 20.0931,-17.1024 c 1.318,-0.6254 2.057,-2.3073 1.6607,-3.7792 -0.5564,-2.0664 -3.1949,-3.1345 -4.9318,-1.9965 -0.8213,0.5382 -1.6832,1.9311 -1.6845,2.7224 0,1.0737 0.739,2.414 1.6367,2.9613 1.0678,0.651 2.0816,0.6791 3.3189,0.092 z m 30.233,-5.5964 c 0,-0.1208 -0.9823,-0.4273 -2.1829,-0.6811 -5.6063,-1.1854 -12.9566,-4.285 -17.6609,-7.4474 -7.8856,-5.3011 -13.5285,-11.7141 -17.9727,-20.4254 -1.4097,-2.7634 -1.8002,-3.2834 -1.4901,-1.9844 0.6923,2.9002 3.9066,8.8962 6.9986,13.0553 7.8197,10.5183 17.4503,16.3833 28.6038,17.4197 3.2361,0.3007 3.7042,0.3087 3.7042,0.063 z m -47.1535,-5.2179 c 2.313,-0.9647 3.7464,-3.1848 3.756,-5.8175 0.01,-2.0978 -0.7698,-3.653 -2.4416,-4.8842 -1.0344,-0.7618 -1.2568,-1.0721 -1.2568,-1.7535 0,-0.4554 -0.1786,-0.9763 -0.3969,-1.1574 -0.2182,-0.1812 -0.3968,-0.6125 -0.3968,-0.9584 0,-0.6892 -0.8436,-1.6874 -1.4259,-1.6874 -0.6899,0 -1.5507,0.9384 -1.5507,1.6906 0,0.4029 -0.1637,0.7954 -0.3638,0.8722 -0.2214,0.085 -0.3638,0.5379 -0.3638,1.1572 0,0.9036 -0.1041,1.0671 -0.9291,1.4585 -1.9012,0.9022 -3.1193,3.0414 -3.1046,5.4522 0.015,2.495 1.1642,4.2611 3.6368,5.5902 1.0235,0.5501 3.561,0.5698 4.8372,0.038 z m -3.0355,-14.0454 c -0.2043,-0.5324 0.2213,-1.2574 0.8056,-1.3724 0.4581,-0.09 1.0921,1.1203 0.8186,1.5628 -0.2529,0.4092 -1.4478,0.2691 -1.6242,-0.1904 z m 42.5198,11.86 c 1.147,-0.9288 0.398,-2.9605 -1.0914,-2.9605 -0.7009,0 -1.5582,0.9356 -1.5582,1.7005 0,0.6477 1.0833,1.739 1.7262,1.739 0.1825,0 0.598,-0.2155 0.9234,-0.479 z m -8.7061,-15.014 c 1.0488,-0.5424 2.051,-2.1418 2.2343,-3.5657 0.1927,-1.4975 -0.6602,-3.2818 -1.9986,-4.1811 -0.6273,-0.4215 -0.9037,-0.7963 -0.8568,-1.1619 0.038,-0.2968 -0.035,-0.6726 -0.162,-0.8351 -0.1271,-0.1625 -0.3074,-0.6149 -0.4006,-1.0054 -0.173,-0.7254 -0.9875,-1.1887 -1.5157,-0.8623 -0.3822,0.2362 -1.0337,1.8019 -1.0337,2.4843 0,0.2943 -0.6358,1.1557 -1.4221,1.9268 -1.6015,1.5703 -1.9671,2.6592 -1.4888,4.4352 0.3412,1.2673 1.7837,2.7963 2.9788,3.1575 1.0407,0.3146 2.6265,0.1448 3.6652,-0.3923 z m -2.6747,-10.4582 c 0,-0.6448 0.6182,-0.5536 0.747,0.1101 0.051,0.2611 -0.084,0.4411 -0.3308,0.4411 -0.2454,0 -0.4162,-0.2262 -0.4162,-0.5512 z m -22.6099,-4.8607 c 0.9562,-0.9562 0.8874,-2.2783 -0.1646,-3.1635 -0.4477,-0.3767 -1.1117,-0.685 -1.4756,-0.685 -0.957,0 -2.2083,1.3446 -2.2083,2.3729 0,1.899 2.4759,2.8483 3.8485,1.4756 z m 15.1406,-0.3041 c 1.6272,-1.0526 3.0017,-4.1322 3.3671,-7.5439 0.1949,-1.82 -0.1605,-4.9358 -0.7111,-6.2346 -0.2879,-0.679 -0.3327,-0.532 -0.4991,1.6352 -0.2929,3.8172 -1.1545,5.5696 -4.0453,8.2286 -1.3362,1.2291 -1.7548,1.7855 -1.7548,2.3325 0,2.001 1.7925,2.7794 3.6432,1.5822 z m -7.7451,-13.9417 c 1.706,-1.706 1.6999,-3.9504 -0.015,-5.4559 -0.8003,-0.7027 -1.1332,-0.8155 -2.406,-0.8155 -1.363,0 -1.5564,0.079 -2.5043,1.0272 -0.9544,0.9544 -1.0272,1.1347 -1.0272,2.5446 0,1.41 0.073,1.5903 1.0272,2.5447 0.9537,0.9537 1.1355,1.0272 2.54,1.0272 1.3584,0 1.6018,-0.089 2.3851,-0.8723 z m -8.5981,-24.7967 c 0,-0.2934 0.5357,-2.7918 1.1906,-5.5518 0.6548,-2.7601 1.1906,-5.0687 1.1906,-5.1304 0,-0.062 -1.9645,-1.6821 -4.3656,-3.6009 -4.0205,-3.2128 -4.7434,-3.9686 -4.1478,-4.3367 0.1198,-0.074 2.5308,-0.336 5.3578,-0.5822 2.827,-0.2461 5.3905,-0.5402 5.6967,-0.6535 0.4162,-0.154 1.0766,-1.4639 2.6157,-5.1881 1.1325,-2.7402 2.1916,-5.0672 2.3537,-5.171 0.5295,-0.3393 0.9781,0.4553 3.0337,5.3732 2.384,5.7034 1.3987,5.0672 8.7202,5.631 2.6645,0.2052 4.9116,0.4402 4.9936,0.5221 0.3591,0.3592 -0.3955,1.1302 -4.3316,4.4256 -3.7601,3.148 -4.1754,3.5777 -4.102,4.244 0.045,0.4077 0.6078,2.8453 1.2509,5.4169 0.6431,2.5716 1.1054,4.7791 1.0272,4.9055 -0.297,0.4807 -1.0001,0.1501 -5.52,-2.5952 l -4.6512,-2.8251 -1.1214,0.6263 c -0.6167,0.3445 -2.7198,1.6158 -4.6735,2.8251 -3.6875,2.2826 -4.5176,2.5886 -4.5176,1.6652 z" id="path3" /></g></svg>